<svg xmlns="http://www.w3.org/2000/svg" viewBox="0 0 320 280" fill="none">
  <defs>
    <linearGradient id="paper" x1="97" y1="35" x2="241" y2="227" gradientUnits="userSpaceOnUse"><stop stop-color="#FFFFF5"/><stop offset="1" stop-color="#E1E9D4"/></linearGradient>
    <linearGradient id="mint" x1="38" y1="115" x2="148" y2="217" gradientUnits="userSpaceOnUse"><stop stop-color="#A9ECD1"/><stop offset="1" stop-color="#409A7C"/></linearGradient>
    <linearGradient id="lime" x1="223" y1="28" x2="273" y2="101" gradientUnits="userSpaceOnUse"><stop stop-color="#FAFFD1"/><stop offset="1" stop-color="#C7E57D"/></linearGradient>
    <filter id="shadow" x="-40%" y="-40%" width="180%" height="190%"><feDropShadow dx="4" dy="10" stdDeviation="8" flood-color="#214F3E" flood-opacity=".2"/></filter>
  </defs>
  <ellipse cx="160" cy="246" rx="111" ry="15" fill="#245F4E" opacity=".13"/>
  <g filter="url(#shadow)" transform="rotate(7 172 133)">
    <rect x="95" y="34" width="152" height="196" rx="19" fill="#9FBFA4"/>
    <rect x="88" y="27" width="152" height="196" rx="19" fill="url(#paper)" stroke="#FFFEF1" stroke-width="3"/>
    <rect x="111" y="53" width="62" height="10" rx="5" fill="#6DAD90"/>
    <path d="M111 82H216M111 100H193" stroke="#B6CCB4" stroke-width="7" stroke-linecap="round"/>
    <rect x="108" y="119" width="109" height="77" rx="12" fill="#E5EED8"/>
    <path d="M127 177L150 158L170 165L197 139" stroke="#70B398" stroke-width="7" stroke-linecap="round" stroke-linejoin="round"/>
    <circle cx="197" cy="139" r="6" fill="#BDD77C" stroke="#F6F7CE" stroke-width="3"/>
  </g>
  <g filter="url(#shadow)">
    <path d="M45 134C45 117 58 105 75 105H120C137 105 149 117 149 134V176C149 193 137 205 120 205H87L62 224V202C52 197 45 188 45 176V134Z" fill="url(#mint)" stroke="#B3E8D0" stroke-width="3" stroke-linejoin="round"/>
    <path d="M74 153H120M74 171H105" stroke="#F5F8DD" stroke-width="8" stroke-linecap="round"/>
  </g>
  <g filter="url(#shadow)">
    <path d="M248 25C253 48 260 57 282 63C260 69 253 79 248 102C243 79 236 69 214 63C236 57 243 48 248 25Z" fill="url(#lime)" stroke="#F5FBC4" stroke-width="3" stroke-linejoin="round"/>
    <path d="M280 111C282 121 286 125 295 128C286 131 282 135 280 145C278 135 274 131 265 128C274 125 278 121 280 111Z" fill="#EDF6C0"/>
  </g>
</svg>
